<?xml version="1.0" encoding="UTF-8" standalone="no"?>
<svg
   xmlns:dc="http://purl.org/dc/elements/1.1/"
   xmlns:cc="http://creativecommons.org/ns#"
   xmlns:rdf="http://www.w3.org/1999/02/22-rdf-syntax-ns#"
   xmlns:svg="http://www.w3.org/2000/svg"
   xmlns="http://www.w3.org/2000/svg"
   xmlns:sodipodi="http://sodipodi.sourceforge.net/DTD/sodipodi-0.dtd"
   xmlns:inkscape="http://www.inkscape.org/namespaces/inkscape"
   aria-hidden="true"
   focusable="false"
   data-prefix="fas"
   data-icon="dog"
   class="svg-inline--fa fa-dog fa-w-18"
   role="img"
   viewBox="0 0 576 512"
   version="1.1"
   id="svg64"
   sodipodi:docname="dog_icon.svg"
   inkscape:version="1.0.1 (0767f8302a, 2020-10-17)">
  <metadata
     id="metadata70">
    <rdf:RDF>
      <cc:Work
         rdf:about="">
        <dc:format>image/svg+xml</dc:format>
        <dc:type
           rdf:resource="http://purl.org/dc/dcmitype/StillImage" />
        <dc:title></dc:title>
      </cc:Work>
    </rdf:RDF>
  </metadata>
  <defs
     id="defs68" />
  <sodipodi:namedview
     pagecolor="#ffffff"
     bordercolor="#666666"
     borderopacity="1"
     objecttolerance="10"
     gridtolerance="10"
     guidetolerance="10"
     inkscape:pageopacity="0"
     inkscape:pageshadow="2"
     inkscape:window-width="1920"
     inkscape:window-height="1052"
     id="namedview66"
     showgrid="false"
     showguides="false"
     inkscape:zoom="1.7089844"
     inkscape:cx="406.89181"
     inkscape:cy="253.952"
     inkscape:window-x="1920"
     inkscape:window-y="0"
     inkscape:window-maximized="1"
     inkscape:current-layer="svg64" />
  <path
     fill="currentColor"
     d="M298.06,224,448,277.55V496a16,16,0,0,1-16,16H368a16,16,0,0,1-16-16V384H192V496a16,16,0,0,1-16,16H112a16,16,0,0,1-16-16V282.09C58.84,268.84,32,233.66,32,192a32,32,0,0,1,64,0,32.06,32.06,0,0,0,32,32ZM544,112v32a64,64,0,0,1-64,64H448v35.58L320,197.87V48c0-14.25,17.22-21.39,27.31-11.31L374.59,64h53.63c10.91,0,23.75,7.92,28.62,17.69L464,96h64A16,16,0,0,1,544,112Zm-112,0a16,16,0,1,0-16,16A16,16,0,0,0,432,112Z"
     id="path62" />
  <path
     style="fill:none;stroke-width:0.585143"
     d="m 107.65663,511.07809 c -3.39743,-1.00082 -7.31375,-4.22035 -9.218346,-7.57824 l -1.81657,-3.20271 -0.15233,-109.20992 -0.15233,-109.20992 -3.358527,-1.33407 C 78.40701,274.7631 63.689432,263.94039 53.614767,251.61143 44.268491,240.17383 37.430555,225.77669 34.189701,210.71232 c -1.771514,-8.23448 -1.891439,-23.56639 -0.224108,-28.6513 2.143319,-6.53655 7.020976,-12.64174 13.461915,-16.84982 16.695088,-10.90745 40.587628,-2.16191 46.609578,17.0608 0.65533,2.09189 1.427614,6.66396 1.716189,10.16016 0.291746,3.53468 1.078166,8.01996 1.771426,10.10321 2.513489,7.55303 8.840909,14.75542 16.104189,18.33112 7.44534,3.66533 3.28862,3.51673 97.9734,3.50262 l 86.30857,-0.0129 75.05487,26.77352 75.05487,26.77352 -0.15658,110.61178 -0.15659,110.61181 -1.64481,3.3495 c -1.93058,3.93146 -5.32452,7.04871 -9.06022,8.32159 -4.03313,1.37423 -69.96697,1.36337 -74.00399,-0.0122 -3.72978,-1.27086 -7.58423,-4.83167 -9.27116,-8.56486 l -1.39811,-3.09406 -0.1627,-57.78286 -0.16271,-57.78286 h -80.13714 -80.13715 l -0.15729,58.368 -0.15729,58.368 -1.29398,2.41925 c -1.64719,3.07964 -4.32485,5.7573 -7.40449,7.40449 -2.41333,1.29081 -2.50585,1.29423 -37.82039,1.39635 -20.32209,0.0588 -36.18413,-0.12829 -37.23937,-0.43914 z"
     id="path72" />
  <path
     style="fill:#6b8e23;stroke-width:0.585143"
     d="m 107.65663,511.07809 c -3.39743,-1.00082 -7.31375,-4.22035 -9.218346,-7.57824 l -1.81657,-3.20271 -0.15233,-109.20992 -0.15233,-109.20992 -3.358527,-1.33407 C 78.40701,274.7631 63.689432,263.94039 53.614767,251.61143 44.268491,240.17383 37.430555,225.77669 34.189701,210.71232 c -1.771514,-8.23448 -1.891439,-23.56639 -0.224108,-28.6513 2.143319,-6.53655 7.020976,-12.64174 13.461915,-16.84982 16.695088,-10.90745 40.587628,-2.16191 46.609578,17.0608 0.65533,2.09189 1.427614,6.66396 1.716189,10.16016 0.291746,3.53468 1.078166,8.01996 1.771426,10.10321 2.513489,7.55303 8.840909,14.75542 16.104189,18.33112 7.44534,3.66533 3.28862,3.51673 97.9734,3.50262 l 86.30857,-0.0129 75.05487,26.77352 75.05487,26.77352 -0.15658,110.61178 -0.15659,110.61181 -1.64481,3.3495 c -1.93058,3.93146 -5.32452,7.04871 -9.06022,8.32159 -4.03313,1.37423 -69.96697,1.36337 -74.00399,-0.0122 -3.72978,-1.27086 -7.58423,-4.83167 -9.27116,-8.56486 l -1.39811,-3.09406 -0.1627,-57.78286 -0.16271,-57.78286 h -80.13714 -80.13715 l -0.15729,58.368 -0.15729,58.368 -1.29398,2.41925 c -1.64719,3.07964 -4.32485,5.7573 -7.40449,7.40449 -2.41333,1.29081 -2.50585,1.29423 -37.82039,1.39635 -20.32209,0.0588 -36.18413,-0.12829 -37.23937,-0.43914 z"
     id="path74" />
  <path
     style="fill:#474554;stroke-width:0.585143;fill-opacity:1"
     d="m 383.92686,220.38855 -63.19543,-22.63074 -0.14846,-76.52994 -0.14847,-76.529939 1.24242,-2.888075 c 2.38195,-5.536988 8.16319,-9.308726 14.26822,-9.308726 6.06458,0 7.30865,0.90058 23.40572,16.943353 l 14.62857,14.579228 29.54971,0.192355 c 28.63967,0.18643 29.65379,0.231429 32.92909,1.461149 6.02415,2.261783 10.52638,5.041749 14.48014,8.940977 3.3173,3.271546 4.52153,5.099421 8.38604,12.728961 l 4.5125,8.908847 h 32.93534 c 36.99039,0 36.82128,-0.01662 41.46532,4.07124 1.53765,1.3535 3.21995,3.61118 4.03518,5.41528 1.38873,3.07329 1.39808,3.23145 1.39466,23.57405 -0.002,14.70045 -0.2278,21.71847 -0.79844,24.86857 -4.24072,23.40981 -19.85436,41.96802 -42.00155,49.92261 -8.15674,2.92964 -12.4977,3.41756 -33.41142,3.7554 L 448,208.17744 v 17.47471 c 0,9.61109 -0.19749,17.45051 -0.43886,17.42092 -0.24137,-0.0296 -28.8768,-10.23761 -63.63428,-22.68452 z m 38.55005,-93.42127 c 2.88801,-1.20669 6.60354,-4.65225 8.15044,-7.55822 1.8108,-3.40173 1.81454,-11.29991 0.007,-14.69479 -6.26727,-11.770705 -23.2706,-11.85111 -29.10766,-0.13765 -1.9132,3.83929 -2.10332,10.51958 -0.40435,14.20738 1.24823,2.70941 4.62861,6.33506 7.09624,7.61112 4.14477,2.14335 9.9413,2.37595 14.25838,0.57216 z"
     id="path76" />
  <path
     style="fill:#474554;fill-opacity:1;stroke-width:0.585143"
     d="m 373.68686,511.16408 c -9.80395,-0.32013 -10.35573,-0.4024 -12.95776,-1.93203 -3.15536,-1.85492 -5.50774,-4.45878 -7.01473,-7.76462 -1.00316,-2.20064 -1.06782,-5.08685 -1.08134,-48.27429 -0.008,-25.26354 -0.18715,-51.26583 -0.3983,-57.78285 l -0.38391,-11.84915 h -79.98008 -79.98009 l -0.38223,9.216 c -0.21023,5.0688 -0.38311,31.28165 -0.38419,58.25078 -0.002,54.81401 0.33716,50.45692 -4.30786,55.31387 -4.58951,4.7989 -1.62187,4.46606 -41.6278,4.66889 -23.47944,0.11904 -36.40358,-0.0269 -37.76817,-0.42644 -2.67658,-0.78372 -6.72763,-4.26559 -8.842126,-7.59981 l -1.663988,-2.62383 v -96.33945 c 0,-52.9867 -0.172044,-102.25099 -0.382315,-109.4762 L 96.149656,281.4082 91.411971,279.48001 C 80.822068,275.17004 70.042008,267.74048 60.316767,258.04936 47.724057,245.50083 40.108504,232.06751 35.312503,213.94351 33.600081,207.47231 33.5102,206.5699 33.469291,195.43771 l -0.04301,-11.70285 2.199107,-4.60575 c 4.556704,-9.54342 13.947375,-16.54827 24.148075,-18.01295 16.080324,-2.3089 32.146963,9.30628 34.768789,25.13568 0.357066,2.15577 1.032877,6.63844 1.50181,9.96148 0.987107,6.99499 2.957096,11.67347 6.834188,16.23038 6.03611,7.09448 12.13595,10.48585 20.43173,11.35959 3.34298,0.3521 38.4898,0.58857 89.75515,0.60389 l 84.26057,0.0252 75.14871,26.82722 75.14871,26.82721 -0.15208,110.49104 c -0.15107,109.75586 -0.15999,110.5068 -1.34125,112.8606 -1.92603,3.8378 -3.84629,6.04459 -6.73069,7.73496 -2.6164,1.53332 -3.11493,1.60306 -14.46246,2.02316 -13.15293,0.48695 -35.78128,0.47262 -51.24979,-0.0325 z"
     id="path901" />
</svg>
